<?xml version="1.0" standalone="no"?>
<!DOCTYPE svg PUBLIC "-//W3C//DTD SVG 20010904//EN"
 "http://www.w3.org/TR/2001/REC-SVG-20010904/DTD/svg10.dtd">
<svg version="1.0" xmlns="http://www.w3.org/2000/svg"
 width="700.000000pt" height="700.000000pt" viewBox="0 0 700.000000 700.000000"
 preserveAspectRatio="xMidYMid meet">
<metadata>
Created by potrace 1.11, written by Peter Selinger 2001-2013
</metadata>
<g transform="translate(0.000000,700.000000) scale(0.100000,-0.100000)"
fill="#000000" stroke="none">
<path d="M3450 6923 c-73 -22 -143 -89 -160 -152 -5 -20 -9 -254 -9 -520 0
-265 -1 -484 -3 -486 -2 -2 -154 -5 -338 -8 -184 -3 -351 -8 -370 -11 -54 -10
-213 -54 -256 -72 -310 -127 -554 -366 -687 -674 -29 -66 -67 -205 -81 -295
-14 -84 -15 -298 -2 -365 3 -14 7 -38 10 -55 17 -109 85 -286 154 -400 72
-120 196 -262 291 -333 20 -15 38 -30 41 -33 17 -20 189 -114 262 -144 198
-79 285 -92 656 -93 163 -1 304 -1 312 -2 13 0 15 -95 13 -796 -1 -438 -4
-798 -7 -802 -3 -3 -360 -6 -793 -6 -887 -1 -827 4 -897 -78 -92 -108 -60
-269 66 -332 l52 -26 788 0 788 0 0 -37 c1 -21 1 -238 1 -483 0 -515 1 -524
74 -588 94 -83 223 -77 303 13 21 24 44 61 50 82 7 26 11 192 11 522 0 266 2
485 3 486 2 2 158 5 348 8 263 4 360 9 410 20 393 94 698 333 863 677 90 187
127 360 121 570 -3 142 -6 159 -34 271 -124 486 -519 846 -1013 923 -57 9
-193 14 -390 15 -166 1 -303 4 -304 5 -6 6 -4 1588 2 1594 3 3 294 6 648 7
635 0 642 1 682 22 97 52 141 153 111 257 -21 73 -90 138 -159 152 -12 2 -308
4 -657 4 l-635 1 0 507 0 507 -25 40 c-28 46 -41 58 -94 86 -37 20 -114 31
-146 22z m-174 -1605 c4 -5 8 -1266 4 -1561 l0 -38 -297 1 c-164 1 -320 6
-348 11 -321 60 -565 289 -643 604 -28 113 -25 300 7 405 43 140 107 247 206
347 129 129 303 212 480 230 33 3 61 6 62 7 6 4 524 -2 529 -6z m1044 -2043
c336 -38 611 -284 690 -617 24 -102 22 -279 -4 -378 -68 -257 -268 -473 -516
-557 -120 -41 -158 -45 -478 -47 -150 0 -278 2 -283 5 -7 4 -13 1021 -9 1561
l0 37 58 3 c92 5 482 0 542 -7z"/>
</g>
</svg>
